<svg width="166" height="176" viewBox="0 0 166 176" fill="none" xmlns="http://www.w3.org/2000/svg">
<g clip-path="url(#clip0_1396_1017)">
<mask id="mask0_1396_1017" style="mask-type:alpha" maskUnits="userSpaceOnUse" x="0" y="17" width="155" height="159">
<path d="M154.357 122.758C141.958 145.978 117.486 161.779 89.3239 161.779C48.634 161.779 15.648 128.793 15.648 88.1027C15.648 54.2225 38.5167 25.6835 69.6602 17.0798C30.4599 21.9555 0.123047 55.3902 0.123047 95.9109C0.123047 139.786 35.6907 175.354 79.5658 175.354C114.019 175.354 143.349 153.422 154.357 122.758Z" fill="white"/>
</mask>
<g mask="url(#mask0_1396_1017)">
<path d="M79.5658 175.354C123.441 175.354 159.009 139.786 159.009 95.9108C159.009 52.0358 123.441 16.468 79.5658 16.468C35.6908 16.468 0.123047 52.0358 0.123047 95.9108C0.123047 139.786 35.6908 175.354 79.5658 175.354Z" fill="#032F4F"/>
<path d="M154.218 89.1226C154.218 131.013 120.259 164.972 78.3681 164.972C36.4777 164.972 2.51855 131.013 2.51855 89.1226C2.51855 47.2318 36.4777 13.2727 78.3681 13.2727C120.259 13.2727 154.218 47.2318 154.218 89.1226Z" fill="url(#paint0_linear_1396_1017)"/>
<path fill-rule="evenodd" clip-rule="evenodd" d="M155.802 89.1227C155.802 131.889 121.133 166.557 78.3672 166.557C35.6013 166.557 0.932617 131.889 0.932617 89.1227C0.932617 46.3569 35.6013 11.6882 78.3672 11.6882C121.133 11.6882 155.802 46.3569 155.802 89.1227ZM78.3672 164.972C120.258 164.972 154.217 131.013 154.217 89.1227C154.217 47.2321 120.258 13.273 78.3672 13.273C36.4765 13.273 2.51742 47.2321 2.51742 89.1227C2.51742 131.013 36.4765 164.972 78.3672 164.972Z" fill="white"/>
</g>
<path d="M48.1943 114.816V107.761H45.4653V107.051H51.7443V107.761H49.0152V114.816H48.1943ZM52.7377 114.816V108.992H53.492V110.579L53.4144 110.301C53.5771 109.858 53.8507 109.521 54.2353 109.292C54.6199 109.055 55.0969 108.937 55.6664 108.937V109.702C55.6368 109.702 55.6072 109.702 55.5776 109.702C55.548 109.695 55.5185 109.691 55.4889 109.691C54.875 109.691 54.3943 109.88 54.0467 110.257C53.6991 110.627 53.5253 111.156 53.5253 111.843V114.816H52.7377ZM57.1036 114.816V108.992H57.8912V114.816H57.1036ZM57.503 107.705C57.3403 107.705 57.2034 107.65 57.0925 107.539C56.9816 107.428 56.9261 107.295 56.9261 107.14C56.9261 106.984 56.9816 106.855 57.0925 106.751C57.2034 106.64 57.3403 106.585 57.503 106.585C57.6657 106.585 57.8025 106.637 57.9134 106.74C58.0244 106.844 58.0798 106.973 58.0798 107.129C58.0798 107.291 58.0244 107.428 57.9134 107.539C57.8099 107.65 57.6731 107.705 57.503 107.705ZM63.0892 114.872C62.5863 114.872 62.1315 114.757 61.7247 114.528C61.3179 114.291 60.9925 113.955 60.7485 113.518C60.5118 113.075 60.3935 112.535 60.3935 111.899C60.3935 111.263 60.5118 110.727 60.7485 110.29C60.9851 109.846 61.3068 109.51 61.7136 109.281C62.1204 109.051 62.5789 108.937 63.0892 108.937C63.6439 108.937 64.1394 109.063 64.5758 109.314C65.0195 109.558 65.3671 109.906 65.6186 110.357C65.87 110.801 65.9957 111.315 65.9957 111.899C65.9957 112.49 65.87 113.008 65.6186 113.452C65.3671 113.896 65.0195 114.243 64.5758 114.495C64.1394 114.746 63.6439 114.872 63.0892 114.872ZM60.0828 116.969V108.992H60.8372V110.745L60.7595 111.91L60.8705 113.086V116.969H60.0828ZM63.0337 114.173C63.4479 114.173 63.8177 114.081 64.1431 113.896C64.4685 113.703 64.7274 113.437 64.9197 113.097C65.1119 112.749 65.2081 112.35 65.2081 111.899C65.2081 111.448 65.1119 111.052 64.9197 110.712C64.7274 110.372 64.4685 110.105 64.1431 109.913C63.8177 109.721 63.4479 109.625 63.0337 109.625C62.6196 109.625 62.2461 109.721 61.9133 109.913C61.5879 110.105 61.329 110.372 61.1367 110.712C60.9518 111.052 60.8594 111.448 60.8594 111.899C60.8594 112.35 60.9518 112.749 61.1367 113.097C61.329 113.437 61.5879 113.703 61.9133 113.896C62.2461 114.081 62.6196 114.173 63.0337 114.173ZM70.6712 114.816V107.051H71.3479L74.8978 113.108H74.5428L78.0595 107.051H78.7362V114.816H77.9486V108.282H78.1372L74.8978 113.829H74.5096L71.248 108.282H71.4588V114.816H70.6712ZM84.7498 114.816V113.53L84.7165 113.319V111.167C84.7165 110.671 84.576 110.29 84.295 110.024C84.0213 109.758 83.6109 109.625 83.0636 109.625C82.6864 109.625 82.3277 109.687 81.9875 109.813C81.6473 109.939 81.3589 110.105 81.1222 110.312L80.7672 109.724C81.0631 109.473 81.418 109.281 81.8322 109.148C82.2464 109.007 82.6827 108.937 83.1413 108.937C83.8956 108.937 84.4762 109.125 84.883 109.503C85.2971 109.872 85.5042 110.438 85.5042 111.2V114.816H84.7498ZM82.7419 114.872C82.3055 114.872 81.9247 114.802 81.5992 114.661C81.2812 114.513 81.0372 114.313 80.8671 114.062C80.697 113.803 80.6119 113.507 80.6119 113.175C80.6119 112.871 80.6822 112.598 80.8227 112.354C80.9706 112.102 81.2073 111.902 81.5327 111.755C81.8655 111.599 82.3092 111.522 82.8639 111.522H84.8719V112.11H82.8861C82.324 112.11 81.9321 112.209 81.7102 112.409C81.4957 112.609 81.3885 112.857 81.3885 113.152C81.3885 113.485 81.5179 113.751 81.7767 113.951C82.0356 114.151 82.398 114.251 82.8639 114.251C83.3077 114.251 83.6885 114.151 84.0066 113.951C84.332 113.744 84.5686 113.448 84.7165 113.064L84.894 113.607C84.7461 113.992 84.4873 114.299 84.1175 114.528C83.7551 114.757 83.2966 114.872 82.7419 114.872ZM89.2077 114.872C88.727 114.872 88.2722 114.805 87.8432 114.672C87.4143 114.532 87.0778 114.358 86.8337 114.151L87.1887 113.53C87.4254 113.707 87.7286 113.862 88.0984 113.995C88.4682 114.121 88.8564 114.184 89.2632 114.184C89.8179 114.184 90.2172 114.099 90.4613 113.929C90.7054 113.751 90.8274 113.518 90.8274 113.23C90.8274 113.016 90.7571 112.849 90.6166 112.731C90.4835 112.605 90.306 112.513 90.0841 112.453C89.8623 112.387 89.6145 112.331 89.3409 112.287C89.0672 112.243 88.7936 112.191 88.5199 112.132C88.2537 112.073 88.0096 111.988 87.7877 111.877C87.5659 111.758 87.3847 111.599 87.2442 111.4C87.111 111.2 87.0445 110.934 87.0445 110.601C87.0445 110.283 87.1332 109.998 87.3107 109.747C87.4882 109.495 87.7471 109.299 88.0873 109.159C88.4349 109.011 88.8564 108.937 89.3519 108.937C89.7291 108.937 90.1063 108.989 90.4835 109.092C90.8607 109.188 91.1713 109.318 91.4154 109.48L91.0715 110.113C90.8126 109.935 90.5353 109.809 90.2394 109.736C89.9436 109.654 89.6478 109.614 89.3519 109.614C88.8268 109.614 88.4386 109.706 88.1871 109.891C87.9431 110.068 87.821 110.298 87.821 110.579C87.821 110.801 87.8876 110.974 88.0207 111.1C88.1612 111.226 88.3424 111.326 88.5643 111.4C88.7936 111.466 89.0413 111.522 89.3076 111.566C89.5812 111.61 89.8512 111.666 90.1174 111.732C90.391 111.792 90.6388 111.877 90.8607 111.988C91.0899 112.091 91.2711 112.243 91.4043 112.442C91.5448 112.635 91.615 112.89 91.615 113.208C91.615 113.548 91.5189 113.844 91.3266 114.095C91.1417 114.339 90.8681 114.532 90.5057 114.672C90.1507 114.805 89.718 114.872 89.2077 114.872ZM94.9019 114.872C94.3546 114.872 93.933 114.724 93.6372 114.428C93.3414 114.132 93.1935 113.714 93.1935 113.175V107.705H93.9811V113.13C93.9811 113.47 94.0662 113.733 94.2363 113.918C94.4138 114.103 94.6652 114.195 94.9906 114.195C95.3382 114.195 95.6267 114.095 95.8559 113.896L96.1333 114.461C95.978 114.602 95.7894 114.705 95.5675 114.772C95.353 114.839 95.1311 114.872 94.9019 114.872ZM92.1507 109.647V108.992H95.7561V109.647H92.1507ZM99.8351 114.872C99.2287 114.872 98.6962 114.746 98.2377 114.495C97.7791 114.236 97.4204 113.885 97.1616 113.441C96.9027 112.99 96.7733 112.476 96.7733 111.899C96.7733 111.322 96.8953 110.812 97.1394 110.368C97.3909 109.924 97.7311 109.577 98.16 109.325C98.5964 109.066 99.0845 108.937 99.6244 108.937C100.172 108.937 100.656 109.063 101.078 109.314C101.507 109.558 101.843 109.906 102.087 110.357C102.331 110.801 102.453 111.315 102.453 111.899C102.453 111.936 102.45 111.976 102.442 112.021C102.442 112.058 102.442 112.098 102.442 112.143H97.3724V111.555H102.021L101.71 111.788C101.71 111.366 101.618 110.993 101.433 110.667C101.255 110.335 101.011 110.076 100.7 109.891C100.39 109.706 100.031 109.614 99.6244 109.614C99.225 109.614 98.8663 109.706 98.5483 109.891C98.2303 110.076 97.9825 110.335 97.805 110.667C97.6275 111 97.5388 111.381 97.5388 111.81V111.932C97.5388 112.376 97.6349 112.768 97.8272 113.108C98.0269 113.441 98.3005 113.703 98.6481 113.896C99.0031 114.081 99.4062 114.173 99.8573 114.173C100.212 114.173 100.541 114.11 100.845 113.984C101.155 113.859 101.422 113.666 101.643 113.408L102.087 113.918C101.828 114.228 101.503 114.465 101.111 114.628C100.726 114.791 100.301 114.872 99.8351 114.872ZM104.056 114.816V108.992H104.811V110.579L104.733 110.301C104.896 109.858 105.169 109.521 105.554 109.292C105.939 109.055 106.416 108.937 106.985 108.937V109.702C106.956 109.702 106.926 109.702 106.896 109.702C106.867 109.695 106.837 109.691 106.808 109.691C106.194 109.691 105.713 109.88 105.365 110.257C105.018 110.627 104.844 111.156 104.844 111.843V114.816H104.056ZM113.465 114.883C112.962 114.883 112.514 114.802 112.122 114.639C111.73 114.469 111.42 114.236 111.191 113.94C110.969 113.644 110.858 113.3 110.858 112.908C110.858 112.575 110.932 112.272 111.08 111.999C111.228 111.718 111.464 111.444 111.79 111.178C112.122 110.904 112.562 110.619 113.11 110.323C113.576 110.065 113.938 109.843 114.197 109.658C114.463 109.466 114.652 109.284 114.763 109.114C114.874 108.937 114.929 108.748 114.929 108.549C114.929 108.26 114.829 108.027 114.63 107.85C114.437 107.672 114.16 107.583 113.798 107.583C113.406 107.583 113.102 107.683 112.888 107.883C112.673 108.075 112.566 108.327 112.566 108.637C112.566 108.793 112.588 108.94 112.633 109.081C112.685 109.222 112.777 109.377 112.91 109.547C113.051 109.717 113.243 109.932 113.487 110.19L117.592 114.417L117.137 114.938L112.855 110.534C112.596 110.261 112.389 110.024 112.233 109.824C112.085 109.617 111.982 109.421 111.923 109.236C111.864 109.051 111.834 108.855 111.834 108.648C111.834 108.316 111.912 108.027 112.067 107.783C112.23 107.532 112.459 107.339 112.755 107.206C113.051 107.066 113.398 106.995 113.798 106.995C114.16 106.995 114.474 107.058 114.741 107.184C115.014 107.302 115.225 107.476 115.373 107.705C115.528 107.935 115.606 108.212 115.606 108.537C115.606 108.818 115.536 109.081 115.395 109.325C115.262 109.569 115.04 109.809 114.729 110.046C114.419 110.275 113.997 110.534 113.465 110.823C112.999 111.082 112.629 111.318 112.355 111.533C112.089 111.747 111.901 111.958 111.79 112.165C111.679 112.365 111.623 112.587 111.623 112.831C111.623 113.112 111.701 113.359 111.856 113.574C112.019 113.781 112.241 113.944 112.522 114.062C112.81 114.173 113.139 114.228 113.509 114.228C114.027 114.228 114.489 114.121 114.896 113.907C115.303 113.692 115.643 113.367 115.916 112.93C116.197 112.494 116.401 111.947 116.527 111.289L117.159 111.488C117.018 112.228 116.778 112.849 116.438 113.352C116.098 113.855 115.676 114.236 115.173 114.495C114.67 114.754 114.101 114.883 113.465 114.883ZM121.903 114.816V107.051H122.58L126.13 113.108H125.775L129.292 107.051H129.968V114.816H129.181V108.282H129.369L126.13 113.829H125.742L122.48 108.282H122.691V114.816H121.903ZM135.982 114.816V113.53L135.949 113.319V111.167C135.949 110.671 135.808 110.29 135.527 110.024C135.253 109.758 134.843 109.625 134.296 109.625C133.919 109.625 133.56 109.687 133.22 109.813C132.879 109.939 132.591 110.105 132.354 110.312L131.999 109.724C132.295 109.473 132.65 109.281 133.064 109.148C133.478 109.007 133.915 108.937 134.373 108.937C135.128 108.937 135.708 109.125 136.115 109.503C136.529 109.872 136.736 110.438 136.736 111.2V114.816H135.982ZM133.974 114.872C133.538 114.872 133.157 114.802 132.831 114.661C132.513 114.513 132.269 114.313 132.099 114.062C131.929 113.803 131.844 113.507 131.844 113.175C131.844 112.871 131.914 112.598 132.055 112.354C132.203 112.102 132.439 111.902 132.765 111.755C133.098 111.599 133.541 111.522 134.096 111.522H136.104V112.11H134.118C133.556 112.11 133.164 112.209 132.942 112.409C132.728 112.609 132.621 112.857 132.621 113.152C132.621 113.485 132.75 113.751 133.009 113.951C133.268 114.151 133.63 114.251 134.096 114.251C134.54 114.251 134.921 114.151 135.239 113.951C135.564 113.744 135.801 113.448 135.949 113.064L136.126 113.607C135.978 113.992 135.719 114.299 135.35 114.528C134.987 114.757 134.529 114.872 133.974 114.872ZM138.876 114.816V108.992H139.63V110.579L139.552 110.301C139.715 109.858 139.989 109.521 140.373 109.292C140.758 109.055 141.235 108.937 141.804 108.937V109.702C141.775 109.702 141.745 109.702 141.716 109.702C141.686 109.695 141.656 109.691 141.627 109.691C141.013 109.691 140.532 109.88 140.185 110.257C139.837 110.627 139.663 111.156 139.663 111.843V114.816H138.876ZM143.863 113.308L143.885 112.298L147.513 108.992H148.478L145.915 111.444L145.471 111.821L143.863 113.308ZM143.242 114.816V106.585H144.029V114.816H143.242ZM147.757 114.816L145.327 111.788L145.837 111.178L148.722 114.816H147.757ZM152.14 114.872C151.533 114.872 151.001 114.746 150.542 114.495C150.084 114.236 149.725 113.885 149.466 113.441C149.207 112.99 149.078 112.476 149.078 111.899C149.078 111.322 149.2 110.812 149.444 110.368C149.695 109.924 150.036 109.577 150.465 109.325C150.901 109.066 151.389 108.937 151.929 108.937C152.476 108.937 152.961 109.063 153.382 109.314C153.811 109.558 154.148 109.906 154.392 110.357C154.636 110.801 154.758 111.315 154.758 111.899C154.758 111.936 154.754 111.976 154.747 112.021C154.747 112.058 154.747 112.098 154.747 112.143H149.677V111.555H154.325L154.015 111.788C154.015 111.366 153.922 110.993 153.737 110.667C153.56 110.335 153.316 110.076 153.005 109.891C152.694 109.706 152.336 109.614 151.929 109.614C151.53 109.614 151.171 109.706 150.853 109.891C150.535 110.076 150.287 110.335 150.11 110.667C149.932 111 149.843 111.381 149.843 111.81V111.932C149.843 112.376 149.94 112.768 150.132 113.108C150.332 113.441 150.605 113.703 150.953 113.896C151.308 114.081 151.711 114.173 152.162 114.173C152.517 114.173 152.846 114.11 153.149 113.984C153.46 113.859 153.726 113.666 153.948 113.408L154.392 113.918C154.133 114.228 153.808 114.465 153.416 114.628C153.031 114.791 152.606 114.872 152.14 114.872ZM158.203 114.872C157.655 114.872 157.234 114.724 156.938 114.428C156.642 114.132 156.494 113.714 156.494 113.175V107.705H157.282V113.13C157.282 113.47 157.367 113.733 157.537 113.918C157.714 114.103 157.966 114.195 158.291 114.195C158.639 114.195 158.927 114.095 159.157 113.896L159.434 114.461C159.279 114.602 159.09 114.705 158.868 114.772C158.654 114.839 158.432 114.872 158.203 114.872ZM155.451 109.647V108.992H159.057V109.647H155.451Z" fill="#032F4F"/>
<path d="M40.7705 98.3557V74.1653H31.4139V71.731H52.9418V74.1653H43.5851V98.3557H40.7705ZM57.4383 98.3557V71.731H67.4036C69.6603 71.731 71.6001 72.0987 73.223 72.834C74.8458 73.544 76.0883 74.5837 76.9504 75.9529C77.8379 77.2968 78.2816 78.9324 78.2816 80.8595C78.2816 82.7359 77.8379 84.3587 76.9504 85.728C76.0883 87.0719 74.8458 88.1115 73.223 88.8469C71.6001 89.5569 69.6603 89.9119 67.4036 89.9119H58.9978L60.2529 88.6187V98.3557H57.4383ZM75.6192 98.3557L68.7728 88.6948H71.8156L78.7 98.3557H75.6192ZM60.2529 88.8469L58.9978 87.5157H67.3275C69.99 87.5157 72.0058 86.9324 73.3751 85.766C74.7697 84.5996 75.467 82.9641 75.467 80.8595C75.467 78.7295 74.7697 77.0813 73.3751 75.9149C72.0058 74.7485 69.99 74.1653 67.3275 74.1653H58.9978L60.2529 72.834V88.8469ZM84.3542 98.3557V78.3872H87.0547V98.3557H84.3542ZM85.7235 73.9751C85.1656 73.9751 84.6965 73.7849 84.3162 73.4046C83.9358 73.0242 83.7457 72.5678 83.7457 72.0353C83.7457 71.5028 83.9358 71.0591 84.3162 70.7041C84.6965 70.3237 85.1656 70.1335 85.7235 70.1335C86.2813 70.1335 86.7504 70.311 87.1308 70.666C87.5111 71.021 87.7013 71.4648 87.7013 71.9973C87.7013 72.5551 87.5111 73.0242 87.1308 73.4046C86.7758 73.7849 86.3067 73.9751 85.7235 73.9751ZM95.1393 98.3557V71.731H97.4594L109.631 92.4983H108.414L120.471 71.731H122.791V98.3557H120.09V75.9529H120.737L109.631 94.9706H108.3L97.1171 75.9529H97.8398V98.3557H95.1393ZM127.206 98.3557L139.377 71.731H142.154L154.325 98.3557H151.358L140.176 73.3665H141.317L130.135 98.3557H127.206ZM131.998 91.2431L132.835 88.961H148.316L149.152 91.2431H131.998Z" fill="#032F4F"/>
<path d="M40.7705 98.3557H40.582V98.5443H40.7705V98.3557ZM40.7705 74.1653H40.9591V73.9767H40.7705V74.1653ZM31.4139 74.1653H31.2253V74.3538H31.4139V74.1653ZM31.4139 71.731V71.5424H31.2253V71.731H31.4139ZM52.9418 71.731H53.1304V71.5424H52.9418V71.731ZM52.9418 74.1653V74.3538H53.1304V74.1653H52.9418ZM43.5851 74.1653V73.9767H43.3966V74.1653H43.5851ZM43.5851 98.3557V98.5443H43.7737V98.3557H43.5851ZM40.9591 98.3557V74.1653H40.582V98.3557H40.9591ZM40.7705 73.9767H31.4139V74.3538H40.7705V73.9767ZM31.6024 74.1653V71.731H31.2253V74.1653H31.6024ZM31.4139 71.9196H52.9418V71.5424H31.4139V71.9196ZM52.7533 71.731V74.1653H53.1304V71.731H52.7533ZM52.9418 73.9767H43.5851V74.3538H52.9418V73.9767ZM43.3966 74.1653V98.3557H43.7737V74.1653H43.3966ZM43.5851 98.1671H40.7705V98.5443H43.5851V98.1671ZM57.4383 98.3557H57.2497V98.5443H57.4383V98.3557ZM57.4383 71.731V71.5424H57.2497V71.731H57.4383ZM73.223 72.834L73.1451 73.0058L73.1474 73.0068L73.223 72.834ZM76.9504 75.9529L76.7908 76.0534L76.7931 76.0568L76.9504 75.9529ZM76.9504 85.728L76.7922 85.6254L76.7917 85.6262L76.9504 85.728ZM73.223 88.8469L73.2985 89.0197L73.3008 89.0187L73.223 88.8469ZM58.9978 89.9119L58.8624 89.7805L58.5519 90.1005H58.9978V89.9119ZM60.2529 88.6187H60.4415V88.1536L60.1176 88.4873L60.2529 88.6187ZM60.2529 98.3557V98.5443H60.4415V98.3557H60.2529ZM75.6192 98.3557L75.4653 98.4647L75.5217 98.5443H75.6192V98.3557ZM68.7728 88.6948V88.5062H68.4081L68.619 88.8038L68.7728 88.6948ZM71.8156 88.6948L71.9692 88.5853L71.9128 88.5062H71.8156V88.6948ZM78.7 98.3557V98.5443H79.066L78.8536 98.2463L78.7 98.3557ZM60.2529 88.8469L60.1157 88.9763L60.4415 89.3218V88.8469H60.2529ZM58.9978 87.5157V87.3271H58.5608L58.8606 87.645L58.9978 87.5157ZM73.3751 85.766L73.2541 85.6214L73.2528 85.6225L73.3751 85.766ZM73.3751 75.9149L73.2528 76.0585L73.2541 76.0595L73.3751 75.9149ZM58.9978 74.1653L58.8606 74.0359L58.5608 74.3538H58.9978V74.1653ZM60.2529 72.834H60.4415V72.3592L60.1157 72.7047L60.2529 72.834ZM57.6269 98.3557V71.731H57.2497V98.3557H57.6269ZM57.4383 71.9196H67.4036V71.5424H57.4383V71.9196ZM67.4036 71.9196C69.6404 71.9196 71.5523 72.2841 73.1451 73.0058L73.3008 72.6623C71.6479 71.9133 69.6802 71.5424 67.4036 71.5424V71.9196ZM73.1474 73.0068C74.739 73.7032 75.9507 74.7191 76.7908 76.0534L77.11 75.8525C76.2258 74.4482 74.9526 73.3849 73.2985 72.6613L73.1474 73.0068ZM76.7931 76.0568C77.6565 77.3643 78.0931 78.9619 78.0931 80.8595H78.4702C78.4702 78.9028 78.0193 77.2294 77.1078 75.849L76.7931 76.0568ZM78.0931 80.8595C78.0931 82.7051 77.657 84.2911 76.7922 85.6254L77.1087 85.8306C78.0188 84.4264 78.4702 82.7667 78.4702 80.8595H78.0931ZM76.7917 85.6262C75.9514 86.936 74.7388 87.953 73.1451 88.6751L73.3008 89.0187C74.9528 88.2701 76.2251 87.2078 77.1091 85.8298L76.7917 85.6262ZM73.1474 88.6741C71.5539 89.3713 69.6412 89.7233 67.4036 89.7233V90.1005C69.6795 90.1005 71.6463 89.7425 73.2985 89.0197L73.1474 88.6741ZM67.4036 89.7233H58.9978V90.1005H67.4036V89.7233ZM59.1331 90.0432L60.3882 88.75L60.1176 88.4873L58.8624 89.7805L59.1331 90.0432ZM60.0644 88.6187V98.3557H60.4415V88.6187H60.0644ZM60.2529 98.1671H57.4383V98.5443H60.2529V98.1671ZM75.773 98.2467L68.9267 88.5857L68.619 88.8038L75.4653 98.4647L75.773 98.2467ZM68.7728 88.8833H71.8156V88.5062H68.7728V88.8833ZM71.6621 88.8042L78.5465 98.4651L78.8536 98.2463L71.9692 88.5853L71.6621 88.8042ZM78.7 98.1671H75.6192V98.5443H78.7V98.1671ZM60.3901 88.7175L59.135 87.3863L58.8606 87.645L60.1157 88.9763L60.3901 88.7175ZM58.9978 87.7042H67.3275V87.3271H58.9978V87.7042ZM67.3275 87.7042C70.0139 87.7042 72.0809 87.1162 73.4974 85.9096L73.2528 85.6225C71.9308 86.7487 69.966 87.3271 67.3275 87.3271V87.7042ZM73.4961 85.9107C74.9405 84.7026 75.6556 83.0101 75.6556 80.8595H75.2785C75.2785 82.9181 74.5989 84.4967 73.2541 85.6214L73.4961 85.9107ZM75.6556 80.8595C75.6556 78.6843 74.9411 76.9788 73.4961 75.7702L73.2541 76.0595C74.5984 77.1838 75.2785 78.7747 75.2785 80.8595H75.6556ZM73.4974 75.7713C72.0809 74.5647 70.0139 73.9767 67.3275 73.9767V74.3538C69.966 74.3538 71.9308 74.9323 73.2528 76.0584L73.4974 75.7713ZM67.3275 73.9767H58.9978V74.3538H67.3275V73.9767ZM59.135 74.2946L60.3901 72.9634L60.1157 72.7047L58.8606 74.0359L59.135 74.2946ZM60.0644 72.834V88.8469H60.4415V72.834H60.0644ZM84.3542 98.3557H84.1656V98.5443H84.3542V98.3557ZM84.3542 78.3872V78.1986H84.1656V78.3872H84.3542ZM87.0547 78.3872H87.2433V78.1986H87.0547V78.3872ZM87.0547 98.3557V98.5443H87.2433V98.3557H87.0547ZM84.3162 70.7041L84.4449 70.842L84.4495 70.8374L84.3162 70.7041ZM87.1308 73.4046L86.9974 73.2712L86.9929 73.2759L87.1308 73.4046ZM84.5428 98.3557V78.3872H84.1656V98.3557H84.5428ZM84.3542 78.5758H87.0547V78.1986H84.3542V78.5758ZM86.8661 78.3872V98.3557H87.2433V78.3872H86.8661ZM87.0547 98.1671H84.3542V98.5443H87.0547V98.1671ZM85.7235 73.7865C85.2136 73.7865 84.7931 73.6148 84.4495 73.2712L84.1828 73.5379C84.6 73.9551 85.1177 74.1637 85.7235 74.1637V73.7865ZM84.4495 73.2712C84.1041 72.9258 83.9342 72.5172 83.9342 72.0353H83.5571C83.5571 72.6184 83.7675 73.1226 84.1828 73.5379L84.4495 73.2712ZM83.9342 72.0353C83.9342 71.5537 84.1037 71.1603 84.4448 70.8419L84.1875 70.5662C83.7679 70.9578 83.5571 71.4519 83.5571 72.0353H83.9342ZM84.4495 70.8374C84.7931 70.4939 85.2136 70.3221 85.7235 70.3221V69.945C85.1177 69.945 84.6 70.1536 84.1828 70.5707L84.4495 70.8374ZM85.7235 70.3221C86.2373 70.3221 86.6594 70.484 87.0021 70.8039L87.2595 70.5282C86.8415 70.1381 86.3253 69.945 85.7235 69.945V70.3221ZM87.0021 70.8039C87.3433 71.1223 87.5127 71.5156 87.5127 71.9973H87.8899C87.8899 71.4139 87.679 70.9198 87.2595 70.5282L87.0021 70.8039ZM87.5127 71.9973C87.5127 72.5072 87.341 72.9277 86.9975 73.2712L87.2641 73.5379C87.6813 73.1208 87.8899 72.6031 87.8899 71.9973H87.5127ZM86.9929 73.2759C86.6781 73.6132 86.2614 73.7865 85.7235 73.7865V74.1637C86.352 74.1637 86.8735 73.9566 87.2686 73.5332L86.9929 73.2759ZM95.1393 98.3557H94.9507V98.5443H95.1393V98.3557ZM95.1393 71.731V71.5424H94.9507V71.731H95.1393ZM97.4594 71.731L97.6221 71.6357L97.5675 71.5424H97.4594V71.731ZM109.631 92.4983V92.6869H109.96L109.793 92.4029L109.631 92.4983ZM108.414 92.4983L108.251 92.4036L108.086 92.6869H108.414V92.4983ZM120.471 71.731V71.5424H120.362L120.308 71.6363L120.471 71.731ZM122.791 71.731H122.98V71.5424H122.791V71.731ZM122.791 98.3557V98.5443H122.98V98.3557H122.791ZM120.09 98.3557H119.902V98.5443H120.09V98.3557ZM120.09 75.9529V75.7644H119.902V75.9529H120.09ZM120.737 75.9529L120.9 76.048L121.066 75.7644H120.737V75.9529ZM109.631 94.9706V95.1591H109.739L109.794 95.0657L109.631 94.9706ZM108.3 94.9706L108.137 95.0662L108.192 95.1591H108.3V94.9706ZM97.1171 75.9529V75.7644H96.7875L96.9546 76.0485L97.1171 75.9529ZM97.8398 75.9529H98.0284V75.7644H97.8398V75.9529ZM97.8398 98.3557V98.5443H98.0284V98.3557H97.8398ZM95.3279 98.3557V71.731H94.9507V98.3557H95.3279ZM95.1393 71.9196H97.4594V71.5424H95.1393V71.9196ZM97.2968 71.8264L109.468 92.5936L109.793 92.4029L97.6221 71.6357L97.2968 71.8264ZM109.631 92.3097H108.414V92.6869H109.631V92.3097ZM108.577 92.593L120.634 71.8257L120.308 71.6363L108.251 92.4036L108.577 92.593ZM120.471 71.9196H122.791V71.5424H120.471V71.9196ZM122.602 71.731V98.3557H122.98V71.731H122.602ZM122.791 98.1671H120.09V98.5443H122.791V98.1671ZM120.279 98.3557V75.9529H119.902V98.3557H120.279ZM120.09 76.1415H120.737V75.7644H120.09V76.1415ZM120.574 75.8578L109.468 94.8755L109.794 95.0657L120.9 76.048L120.574 75.8578ZM109.631 94.782H108.3V95.1591H109.631V94.782ZM108.462 94.875L97.2797 75.8574L96.9546 76.0485L108.137 95.0662L108.462 94.875ZM97.1171 76.1415H97.8398V75.7644H97.1171V76.1415ZM97.6512 75.9529V98.3557H98.0284V75.9529H97.6512ZM97.8398 98.1671H95.1393V98.5443H97.8398V98.1671ZM127.206 98.3557L127.035 98.2773L126.912 98.5443H127.206V98.3557ZM139.377 71.731V71.5424H139.256L139.206 71.6526L139.377 71.731ZM142.154 71.731L142.325 71.6526L142.275 71.5424H142.154V71.731ZM154.325 98.3557V98.5443H154.619L154.497 98.2773L154.325 98.3557ZM151.358 98.3557L151.186 98.4327L151.236 98.5443H151.358V98.3557ZM140.176 73.3665V73.178H139.885L140.004 73.4436L140.176 73.3665ZM141.317 73.3665L141.489 73.4436L141.608 73.178H141.317V73.3665ZM130.135 98.3557V98.5443H130.257L130.307 98.4327L130.135 98.3557ZM131.998 91.2431L131.821 91.1782L131.728 91.4317H131.998V91.2431ZM132.835 88.961V88.7724H132.704L132.658 88.8961L132.835 88.961ZM148.316 88.961L148.493 88.8961L148.447 88.7724H148.316V88.961ZM149.152 91.2431V91.4317H149.422L149.329 91.1782L149.152 91.2431ZM127.378 98.4341L139.549 71.8094L139.206 71.6526L127.035 98.2773L127.378 98.4341ZM139.377 71.9196H142.154V71.5424H139.377V71.9196ZM141.982 71.8094L154.154 98.4341L154.497 98.2773L142.325 71.6526L141.982 71.8094ZM154.325 98.1671H151.358V98.5443H154.325V98.1671ZM151.531 98.2787L140.348 73.2895L140.004 73.4436L151.186 98.4327L151.531 98.2787ZM140.176 73.5551H141.317V73.178H140.176V73.5551ZM141.145 73.2895L129.963 98.2787L130.307 98.4327L141.489 73.4436L141.145 73.2895ZM130.135 98.1671H127.206V98.5443H130.135V98.1671ZM132.175 91.308L133.012 89.0259L132.658 88.8961L131.821 91.1782L132.175 91.308ZM132.835 89.1496H148.316V88.7724H132.835V89.1496ZM148.139 89.0259L148.975 91.308L149.329 91.1782L148.493 88.8961L148.139 89.0259ZM149.152 91.0545H131.998V91.4317H149.152V91.0545Z" fill="#032F4F"/>
<path d="M85.8401 76.1717C87.9388 76.1717 89.6402 74.4703 89.6402 72.3716C89.6402 70.2729 87.9388 68.5715 85.8401 68.5715C83.7414 68.5715 82.04 70.2729 82.04 72.3716C82.04 74.4703 83.7414 76.1717 85.8401 76.1717Z" fill="#176CAC"/>
<path d="M85.0452 14.1513C85.0452 14.1513 84.0726 17.976 82.5325 23.9561C81.8192 24.2896 81.3798 24.4842 80.5925 24.5069C80.5897 23.6909 80.6538 15.3983 80.6538 15.3983L75.9112 16.7449C75.9112 16.7449 75.6053 18.9623 75.0938 20.0159C74.6011 20.3419 73.6385 20.4292 73.6385 20.4292L73.8676 15.8058L71.2432 11.9928C71.2432 11.9928 72.1078 11.5613 72.698 11.5796C73.687 12.2071 75.1136 13.9325 75.1136 13.9325L79.8562 12.5859C79.8562 12.5859 75.4422 5.56482 75.016 4.86903C75.6977 4.47457 76.1738 4.40928 76.9559 4.31812C81.409 8.59634 84.2466 11.3392 84.2466 11.3392L89.5308 9.83875C89.9164 9.72914 91.2426 9.51271 91.5905 9.69892C91.9379 9.88509 92.4985 10.1124 92.6045 10.4853C92.7106 10.8582 92.3528 11.3462 92.1548 11.6874C91.9568 12.0285 90.7151 12.5413 90.329 12.6509L85.0452 14.1513Z" fill="#065D9C"/>
</g>
<defs>
<linearGradient id="paint0_linear_1396_1017" x1="78.3681" y1="13.2727" x2="78.3681" y2="164.972" gradientUnits="userSpaceOnUse">
<stop offset="0.387985" stop-color="#065D9C"/>
<stop offset="0.906057" stop-color="#499CD7"/>
</linearGradient>
<clipPath id="clip0_1396_1017">
<rect width="165" height="174.9" fill="white" transform="translate(0.123047 0.549805)"/>
</clipPath>
</defs>
</svg>
